<mxfile host="app.diagrams.net" modified="2023-05-18T15:49:11.876Z" agent="Mozilla/5.0 (Macintosh; Intel Mac OS X 10.15; rv:109.0) Gecko/20100101 Firefox/113.0" etag="N4FKyYI82YksJHgHbG5d" version="21.3.0" type="github">
  <diagram name="Page-1" id="pTc8qVfQxKfmeEwoTJtu">
    <mxGraphModel dx="1411" dy="769" grid="1" gridSize="10" guides="1" tooltips="1" connect="1" arrows="1" fold="1" page="1" pageScale="1" pageWidth="1169" pageHeight="827" math="0" shadow="0">
      <root>
        <mxCell id="0" />
        <mxCell id="1" parent="0" />
        <mxCell id="wT2hEgxZ2jl30o9yvn4_-1" value="Actor" style="shape=umlActor;verticalLabelPosition=bottom;verticalAlign=top;html=1;noLabel=1;" parent="1" vertex="1">
          <mxGeometry x="395" y="480" width="30" height="60" as="geometry" />
        </mxCell>
        <mxCell id="wT2hEgxZ2jl30o9yvn4_-8" value="Actor" style="shape=umlActor;verticalLabelPosition=bottom;verticalAlign=top;html=1;noLabel=1;" parent="1" vertex="1">
          <mxGeometry x="395" y="630" width="30" height="60" as="geometry" />
        </mxCell>
        <mxCell id="wT2hEgxZ2jl30o9yvn4_-12" value="Actor" style="shape=umlActor;verticalLabelPosition=bottom;verticalAlign=top;html=1;movable=1;resizable=1;rotatable=1;deletable=1;editable=1;locked=0;connectable=1;noLabel=1;" parent="1" vertex="1">
          <mxGeometry x="395" y="90" width="30" height="60" as="geometry" />
        </mxCell>
        <mxCell id="wT2hEgxZ2jl30o9yvn4_-14" value="Admin App" style="text;strokeColor=none;align=center;fillColor=none;html=1;verticalAlign=middle;whiteSpace=wrap;rounded=0;" parent="1" vertex="1">
          <mxGeometry x="380" y="170" width="60" height="30" as="geometry" />
        </mxCell>
        <mxCell id="wT2hEgxZ2jl30o9yvn4_-15" value="Recepcionista" style="text;strokeColor=none;align=center;fillColor=none;html=1;verticalAlign=middle;whiteSpace=wrap;rounded=0;" parent="1" vertex="1">
          <mxGeometry x="370" y="550" width="80" height="30" as="geometry" />
        </mxCell>
        <mxCell id="wT2hEgxZ2jl30o9yvn4_-16" value="Cliente final" style="text;strokeColor=none;align=center;fillColor=none;html=1;verticalAlign=middle;whiteSpace=wrap;rounded=0;" parent="1" vertex="1">
          <mxGeometry x="380" y="690" width="60" height="30" as="geometry" />
        </mxCell>
        <mxCell id="wT2hEgxZ2jl30o9yvn4_-18" value="Crear habitación" style="ellipse;whiteSpace=wrap;html=1;" parent="1" vertex="1">
          <mxGeometry x="555" y="110" width="140" height="40" as="geometry" />
        </mxCell>
        <mxCell id="wT2hEgxZ2jl30o9yvn4_-19" value="Identificarse" style="ellipse;whiteSpace=wrap;html=1;" parent="1" vertex="1">
          <mxGeometry x="865" y="110" width="140" height="40" as="geometry" />
        </mxCell>
        <mxCell id="wT2hEgxZ2jl30o9yvn4_-20" value="Usuario y contraseña" style="ellipse;whiteSpace=wrap;html=1;" parent="1" vertex="1">
          <mxGeometry x="970" y="190" width="140" height="40" as="geometry" />
        </mxCell>
        <mxCell id="wT2hEgxZ2jl30o9yvn4_-21" value="Certificado digital" style="ellipse;whiteSpace=wrap;html=1;" parent="1" vertex="1">
          <mxGeometry x="1010" y="70" width="140" height="40" as="geometry" />
        </mxCell>
        <mxCell id="wT2hEgxZ2jl30o9yvn4_-22" value="" style="endArrow=block;endFill=0;endSize=12;html=1;rounded=0;entryX=1;entryY=0.5;entryDx=0;entryDy=0;exitX=0.5;exitY=0;exitDx=0;exitDy=0;" parent="1" source="wT2hEgxZ2jl30o9yvn4_-20" target="wT2hEgxZ2jl30o9yvn4_-19" edge="1">
          <mxGeometry width="160" relative="1" as="geometry">
            <mxPoint x="715" y="380" as="sourcePoint" />
            <mxPoint x="875" y="380" as="targetPoint" />
          </mxGeometry>
        </mxCell>
        <mxCell id="wT2hEgxZ2jl30o9yvn4_-23" value="" style="endArrow=block;endFill=0;endSize=12;html=1;rounded=0;entryX=1;entryY=0.5;entryDx=0;entryDy=0;exitX=0.5;exitY=1;exitDx=0;exitDy=0;" parent="1" source="wT2hEgxZ2jl30o9yvn4_-21" target="wT2hEgxZ2jl30o9yvn4_-19" edge="1">
          <mxGeometry width="160" relative="1" as="geometry">
            <mxPoint x="995.2775000000001" y="100" as="sourcePoint" />
            <mxPoint x="905" y="210" as="targetPoint" />
          </mxGeometry>
        </mxCell>
        <mxCell id="wT2hEgxZ2jl30o9yvn4_-25" value="App Hotel" style="shape=umlFrame;whiteSpace=wrap;html=1;pointerEvents=0;width=90;height=30;" parent="1" vertex="1">
          <mxGeometry x="465" y="30" width="695" height="700" as="geometry" />
        </mxCell>
        <mxCell id="wT2hEgxZ2jl30o9yvn4_-26" value="&amp;lt;&amp;lt;includes&amp;gt;&amp;gt;" style="endArrow=open;endSize=16;endFill=0;html=1;rounded=0;entryX=0.107;entryY=0.225;entryDx=0;entryDy=0;dashed=1;exitX=1;exitY=0.5;exitDx=0;exitDy=0;entryPerimeter=0;" parent="1" source="wT2hEgxZ2jl30o9yvn4_-18" target="wT2hEgxZ2jl30o9yvn4_-19" edge="1">
          <mxGeometry width="160" relative="1" as="geometry">
            <mxPoint x="695" y="130" as="sourcePoint" />
            <mxPoint x="805" y="320" as="targetPoint" />
            <Array as="points" />
          </mxGeometry>
        </mxCell>
        <mxCell id="wT2hEgxZ2jl30o9yvn4_-34" value="" style="group" parent="1" vertex="1" connectable="0">
          <mxGeometry x="510" y="320" width="160" height="80" as="geometry" />
        </mxCell>
        <mxCell id="wT2hEgxZ2jl30o9yvn4_-27" value="Obtener listado hab. ocupadas" style="ellipse;whiteSpace=wrap;html=1;verticalAlign=top;" parent="wT2hEgxZ2jl30o9yvn4_-34" vertex="1">
          <mxGeometry width="160" height="80" as="geometry" />
        </mxCell>
        <mxCell id="wT2hEgxZ2jl30o9yvn4_-29" value="&lt;div&gt;&lt;b&gt;extension point&lt;/b&gt;&lt;/div&gt;&lt;div&gt;Imprimir&lt;br&gt;&lt;/div&gt;" style="text;strokeColor=none;align=center;fillColor=none;html=1;verticalAlign=middle;whiteSpace=wrap;rounded=0;" parent="wT2hEgxZ2jl30o9yvn4_-34" vertex="1">
          <mxGeometry x="22.857142857142854" y="46" width="114.28571428571428" height="30" as="geometry" />
        </mxCell>
        <mxCell id="wT2hEgxZ2jl30o9yvn4_-37" value="" style="edgeStyle=none;orthogonalLoop=1;jettySize=auto;html=1;rounded=0;endArrow=none;endFill=0;entryX=1;entryY=0.5;entryDx=0;entryDy=0;" parent="wT2hEgxZ2jl30o9yvn4_-34" target="wT2hEgxZ2jl30o9yvn4_-27" edge="1">
          <mxGeometry width="80" relative="1" as="geometry">
            <mxPoint y="39.5" as="sourcePoint" />
            <mxPoint x="148.57142857142856" y="40" as="targetPoint" />
            <Array as="points" />
          </mxGeometry>
        </mxCell>
        <mxCell id="wT2hEgxZ2jl30o9yvn4_-39" value="&amp;lt;&amp;lt;includes&amp;gt;&amp;gt;" style="endArrow=open;endSize=16;endFill=0;html=1;rounded=0;exitX=0.993;exitY=0.413;exitDx=0;exitDy=0;entryX=0.079;entryY=0.775;entryDx=0;entryDy=0;dashed=1;entryPerimeter=0;exitPerimeter=0;" parent="1" source="wT2hEgxZ2jl30o9yvn4_-72" target="wT2hEgxZ2jl30o9yvn4_-19" edge="1">
          <mxGeometry width="160" relative="1" as="geometry">
            <mxPoint x="740" y="210" as="sourcePoint" />
            <mxPoint x="905" y="170" as="targetPoint" />
            <Array as="points" />
          </mxGeometry>
        </mxCell>
        <mxCell id="wT2hEgxZ2jl30o9yvn4_-40" value="Gestionar reservas" style="ellipse;whiteSpace=wrap;html=1;verticalAlign=top;" parent="1" vertex="1">
          <mxGeometry x="540" y="470" width="140" height="60" as="geometry" />
        </mxCell>
        <mxCell id="wT2hEgxZ2jl30o9yvn4_-42" value="&amp;lt;&amp;lt;includes&amp;gt;&amp;gt;" style="endArrow=open;endSize=16;endFill=0;html=1;rounded=0;exitX=1;exitY=0.5;exitDx=0;exitDy=0;dashed=1;entryX=1;entryY=1;entryDx=0;entryDy=0;" parent="1" source="wT2hEgxZ2jl30o9yvn4_-40" target="wT2hEgxZ2jl30o9yvn4_-20" edge="1">
          <mxGeometry width="160" relative="1" as="geometry">
            <mxPoint x="695" y="570" as="sourcePoint" />
            <mxPoint x="805" y="560" as="targetPoint" />
            <Array as="points">
              <mxPoint x="1090" y="500" />
            </Array>
          </mxGeometry>
        </mxCell>
        <mxCell id="wT2hEgxZ2jl30o9yvn4_-47" value="Gestionar reserva" style="ellipse;whiteSpace=wrap;html=1;" parent="1" vertex="1">
          <mxGeometry x="555" y="650" width="140" height="40" as="geometry" />
        </mxCell>
        <mxCell id="wT2hEgxZ2jl30o9yvn4_-48" value="" style="endArrow=none;endFill=0;endSize=12;html=1;rounded=0;entryX=0;entryY=0.5;entryDx=0;entryDy=0;exitX=1;exitY=0.5;exitDx=0;exitDy=0;" parent="1" source="wT2hEgxZ2jl30o9yvn4_-16" target="wT2hEgxZ2jl30o9yvn4_-47" edge="1">
          <mxGeometry width="160" relative="1" as="geometry">
            <mxPoint x="445" y="660" as="sourcePoint" />
            <mxPoint x="645" y="730" as="targetPoint" />
          </mxGeometry>
        </mxCell>
        <mxCell id="wT2hEgxZ2jl30o9yvn4_-49" value="" style="endArrow=none;endFill=0;endSize=12;html=1;rounded=0;entryX=0;entryY=0.5;entryDx=0;entryDy=0;exitX=1;exitY=0.25;exitDx=0;exitDy=0;" parent="1" source="wT2hEgxZ2jl30o9yvn4_-15" target="wT2hEgxZ2jl30o9yvn4_-40" edge="1">
          <mxGeometry width="160" relative="1" as="geometry">
            <mxPoint x="455" y="510" as="sourcePoint" />
            <mxPoint x="565" y="720" as="targetPoint" />
          </mxGeometry>
        </mxCell>
        <mxCell id="wT2hEgxZ2jl30o9yvn4_-52" value="" style="endArrow=none;endFill=0;endSize=12;html=1;rounded=0;entryX=0;entryY=0.5;entryDx=0;entryDy=0;exitX=1;exitY=0;exitDx=0;exitDy=0;" parent="1" source="wT2hEgxZ2jl30o9yvn4_-14" target="wT2hEgxZ2jl30o9yvn4_-18" edge="1">
          <mxGeometry width="160" relative="1" as="geometry">
            <mxPoint x="455" y="120" as="sourcePoint" />
            <mxPoint x="805" y="310" as="targetPoint" />
          </mxGeometry>
        </mxCell>
        <mxCell id="wT2hEgxZ2jl30o9yvn4_-54" value="" style="endArrow=none;endFill=0;endSize=12;html=1;rounded=0;entryX=0;entryY=0.5;entryDx=0;entryDy=0;exitX=1;exitY=0.5;exitDx=0;exitDy=0;" parent="1" source="wT2hEgxZ2jl30o9yvn4_-14" target="wT2hEgxZ2jl30o9yvn4_-72" edge="1">
          <mxGeometry width="160" relative="1" as="geometry">
            <mxPoint x="455" y="160" as="sourcePoint" />
            <mxPoint x="600" y="210" as="targetPoint" />
          </mxGeometry>
        </mxCell>
        <mxCell id="wT2hEgxZ2jl30o9yvn4_-55" value="Actor" style="shape=umlActor;verticalLabelPosition=bottom;verticalAlign=top;html=1;movable=1;resizable=1;rotatable=1;deletable=1;editable=1;locked=0;connectable=1;noLabel=1;" parent="1" vertex="1">
          <mxGeometry x="215" y="250" width="30" height="60" as="geometry" />
        </mxCell>
        <mxCell id="wT2hEgxZ2jl30o9yvn4_-56" value="Usuario" style="text;strokeColor=none;align=center;fillColor=none;html=1;verticalAlign=middle;whiteSpace=wrap;rounded=0;" parent="1" vertex="1">
          <mxGeometry x="200" y="320" width="60" height="30" as="geometry" />
        </mxCell>
        <mxCell id="wT2hEgxZ2jl30o9yvn4_-60" value="" style="endArrow=block;endFill=0;endSize=12;html=1;rounded=0;entryX=1;entryY=0;entryDx=0;entryDy=0;exitX=0;exitY=0.25;exitDx=0;exitDy=0;" parent="1" source="wT2hEgxZ2jl30o9yvn4_-14" target="wT2hEgxZ2jl30o9yvn4_-56" edge="1">
          <mxGeometry width="160" relative="1" as="geometry">
            <mxPoint x="385" y="120" as="sourcePoint" />
            <mxPoint x="265" y="270" as="targetPoint" />
          </mxGeometry>
        </mxCell>
        <mxCell id="wT2hEgxZ2jl30o9yvn4_-61" value="" style="endArrow=block;endFill=0;endSize=12;html=1;rounded=0;entryX=1;entryY=0.75;entryDx=0;entryDy=0;exitX=0;exitY=0.25;exitDx=0;exitDy=0;" parent="1" source="wT2hEgxZ2jl30o9yvn4_-15" target="wT2hEgxZ2jl30o9yvn4_-56" edge="1">
          <mxGeometry width="160" relative="1" as="geometry">
            <mxPoint x="385" y="490" as="sourcePoint" />
            <mxPoint x="275" y="280" as="targetPoint" />
          </mxGeometry>
        </mxCell>
        <mxCell id="wT2hEgxZ2jl30o9yvn4_-62" value="" style="endArrow=block;endFill=0;endSize=12;html=1;rounded=0;entryX=0.5;entryY=1;entryDx=0;entryDy=0;exitX=0;exitY=0.25;exitDx=0;exitDy=0;" parent="1" source="wT2hEgxZ2jl30o9yvn4_-16" target="wT2hEgxZ2jl30o9yvn4_-56" edge="1">
          <mxGeometry width="160" relative="1" as="geometry">
            <mxPoint x="375" y="670" as="sourcePoint" />
            <mxPoint x="270" y="353" as="targetPoint" />
          </mxGeometry>
        </mxCell>
        <mxCell id="wT2hEgxZ2jl30o9yvn4_-63" value="&amp;lt;&amp;lt;includes&amp;gt;&amp;gt;" style="endArrow=open;endSize=16;endFill=0;html=1;rounded=0;dashed=1;" parent="1" edge="1">
          <mxGeometry width="160" relative="1" as="geometry">
            <mxPoint x="45" y="27.5" as="sourcePoint" />
            <mxPoint x="165" y="27.5" as="targetPoint" />
            <Array as="points" />
          </mxGeometry>
        </mxCell>
        <mxCell id="wT2hEgxZ2jl30o9yvn4_-64" value="&amp;lt;&amp;lt;extends&amp;gt;&amp;gt;" style="endArrow=open;endSize=16;endFill=0;html=1;rounded=0;dashed=1;" parent="1" edge="1">
          <mxGeometry width="160" relative="1" as="geometry">
            <mxPoint x="45" y="57.5" as="sourcePoint" />
            <mxPoint x="165" y="57.5" as="targetPoint" />
          </mxGeometry>
        </mxCell>
        <mxCell id="wT2hEgxZ2jl30o9yvn4_-65" value="" style="endArrow=block;endFill=0;endSize=12;html=1;rounded=0;" parent="1" edge="1">
          <mxGeometry width="160" relative="1" as="geometry">
            <mxPoint x="45" y="87.5" as="sourcePoint" />
            <mxPoint x="165" y="87.5" as="targetPoint" />
          </mxGeometry>
        </mxCell>
        <mxCell id="wT2hEgxZ2jl30o9yvn4_-66" value="" style="endArrow=none;endFill=0;endSize=12;html=1;rounded=0;" parent="1" edge="1">
          <mxGeometry width="160" relative="1" as="geometry">
            <mxPoint x="45" y="117" as="sourcePoint" />
            <mxPoint x="165" y="117.5" as="targetPoint" />
          </mxGeometry>
        </mxCell>
        <mxCell id="wT2hEgxZ2jl30o9yvn4_-67" value="Generalización / Herencia" style="text;strokeColor=none;align=center;fillColor=none;html=1;verticalAlign=middle;whiteSpace=wrap;rounded=0;" parent="1" vertex="1">
          <mxGeometry x="167.5" y="70" width="95" height="30" as="geometry" />
        </mxCell>
        <mxCell id="wT2hEgxZ2jl30o9yvn4_-68" value="Asociación" style="text;strokeColor=none;align=center;fillColor=none;html=1;verticalAlign=middle;whiteSpace=wrap;rounded=0;" parent="1" vertex="1">
          <mxGeometry x="185" y="102.5" width="60" height="30" as="geometry" />
        </mxCell>
        <mxCell id="wT2hEgxZ2jl30o9yvn4_-69" value="&amp;lt;&amp;lt;extends&amp;gt;&amp;gt;" style="endArrow=open;endSize=16;endFill=0;html=1;rounded=0;dashed=1;entryX=0.914;entryY=0.813;entryDx=0;entryDy=0;exitX=0;exitY=0.5;exitDx=0;exitDy=0;entryPerimeter=0;" parent="1" source="wT2hEgxZ2jl30o9yvn4_-70" target="wT2hEgxZ2jl30o9yvn4_-27" edge="1">
          <mxGeometry x="0.0001" width="160" relative="1" as="geometry">
            <mxPoint x="780" y="414" as="sourcePoint" />
            <mxPoint x="880" y="434" as="targetPoint" />
            <Array as="points" />
            <mxPoint as="offset" />
          </mxGeometry>
        </mxCell>
        <mxCell id="wT2hEgxZ2jl30o9yvn4_-70" value="Imprimir PDF" style="ellipse;whiteSpace=wrap;html=1;" parent="1" vertex="1">
          <mxGeometry x="770" y="420" width="140" height="40" as="geometry" />
        </mxCell>
        <mxCell id="wT2hEgxZ2jl30o9yvn4_-71" value="" style="group;labelPosition=center;verticalLabelPosition=middle;align=center;verticalAlign=top;" parent="1" vertex="1" connectable="0">
          <mxGeometry x="540" y="180" width="140" height="90" as="geometry" />
        </mxCell>
        <mxCell id="wT2hEgxZ2jl30o9yvn4_-72" value="Gestionar habitaciones" style="ellipse;whiteSpace=wrap;html=1;verticalAlign=top;" parent="wT2hEgxZ2jl30o9yvn4_-71" vertex="1">
          <mxGeometry x="-50" width="190" height="80" as="geometry" />
        </mxCell>
        <mxCell id="wT2hEgxZ2jl30o9yvn4_-73" value="&lt;div&gt;&lt;b&gt;ext. point&lt;/b&gt; Modificar&lt;/div&gt;&lt;div&gt;&lt;b&gt;ext. poin&lt;/b&gt;t Borrar&lt;br&gt;&lt;/div&gt;" style="text;strokeColor=none;align=center;fillColor=none;html=1;verticalAlign=middle;whiteSpace=wrap;rounded=0;" parent="wT2hEgxZ2jl30o9yvn4_-71" vertex="1">
          <mxGeometry x="-20" y="40" width="130" height="30" as="geometry" />
        </mxCell>
        <mxCell id="wT2hEgxZ2jl30o9yvn4_-74" value="" style="edgeStyle=none;orthogonalLoop=1;jettySize=auto;html=1;rounded=0;endArrow=none;endFill=0;" parent="wT2hEgxZ2jl30o9yvn4_-71" edge="1">
          <mxGeometry width="80" relative="1" as="geometry">
            <mxPoint x="-34" y="30" as="sourcePoint" />
            <mxPoint x="126" y="29" as="targetPoint" />
            <Array as="points" />
          </mxGeometry>
        </mxCell>
        <mxCell id="wT2hEgxZ2jl30o9yvn4_-75" value="&amp;lt;&amp;lt;extends&amp;gt;&amp;gt;" style="endArrow=open;endSize=16;endFill=0;html=1;rounded=0;dashed=1;entryX=0.986;entryY=0.638;entryDx=0;entryDy=0;exitX=0;exitY=0.5;exitDx=0;exitDy=0;entryPerimeter=0;" parent="1" source="wT2hEgxZ2jl30o9yvn4_-76" target="wT2hEgxZ2jl30o9yvn4_-72" edge="1">
          <mxGeometry x="0.0001" width="160" relative="1" as="geometry">
            <mxPoint x="860" y="330" as="sourcePoint" />
            <mxPoint x="650" y="276" as="targetPoint" />
            <Array as="points" />
            <mxPoint as="offset" />
          </mxGeometry>
        </mxCell>
        <mxCell id="wT2hEgxZ2jl30o9yvn4_-76" value="Modificar habitación" style="ellipse;whiteSpace=wrap;html=1;" parent="1" vertex="1">
          <mxGeometry x="780" y="205" width="140" height="40" as="geometry" />
        </mxCell>
        <mxCell id="wT2hEgxZ2jl30o9yvn4_-77" value="&amp;lt;&amp;lt;extends&amp;gt;&amp;gt;" style="endArrow=open;endSize=16;endFill=0;html=1;rounded=0;dashed=1;entryX=0.9;entryY=0.8;entryDx=0;entryDy=0;exitX=0.007;exitY=0.425;exitDx=0;exitDy=0;entryPerimeter=0;exitPerimeter=0;" parent="1" source="wT2hEgxZ2jl30o9yvn4_-81" target="wT2hEgxZ2jl30o9yvn4_-72" edge="1">
          <mxGeometry x="0.0001" width="160" relative="1" as="geometry">
            <mxPoint x="702" y="309" as="sourcePoint" />
            <mxPoint x="640" y="280" as="targetPoint" />
            <Array as="points" />
            <mxPoint as="offset" />
          </mxGeometry>
        </mxCell>
        <mxCell id="wT2hEgxZ2jl30o9yvn4_-80" value="" style="group;labelPosition=center;verticalLabelPosition=middle;align=center;verticalAlign=top;" parent="1" vertex="1" connectable="0">
          <mxGeometry x="770" y="270" width="140" height="80" as="geometry" />
        </mxCell>
        <mxCell id="wT2hEgxZ2jl30o9yvn4_-81" value="Borrar habitación" style="ellipse;whiteSpace=wrap;html=1;verticalAlign=top;" parent="wT2hEgxZ2jl30o9yvn4_-80" vertex="1">
          <mxGeometry width="140" height="80" as="geometry" />
        </mxCell>
        <mxCell id="wT2hEgxZ2jl30o9yvn4_-82" value="&lt;div&gt;&lt;b&gt;extension point&lt;/b&gt;&lt;/div&gt;&lt;div&gt;Consultar habitación&lt;br&gt;&lt;/div&gt;" style="text;strokeColor=none;align=center;fillColor=none;html=1;verticalAlign=middle;whiteSpace=wrap;rounded=0;" parent="wT2hEgxZ2jl30o9yvn4_-80" vertex="1">
          <mxGeometry x="20" y="40" width="100" height="30" as="geometry" />
        </mxCell>
        <mxCell id="wT2hEgxZ2jl30o9yvn4_-83" value="" style="edgeStyle=none;orthogonalLoop=1;jettySize=auto;html=1;rounded=0;endArrow=none;endFill=0;" parent="wT2hEgxZ2jl30o9yvn4_-80" edge="1">
          <mxGeometry width="80" relative="1" as="geometry">
            <mxPoint x="5" y="30" as="sourcePoint" />
            <mxPoint x="135" y="30" as="targetPoint" />
            <Array as="points" />
          </mxGeometry>
        </mxCell>
        <mxCell id="wT2hEgxZ2jl30o9yvn4_-84" value="&amp;lt;&amp;lt;extends&amp;gt;&amp;gt;" style="endArrow=open;endSize=16;endFill=0;html=1;rounded=0;dashed=1;entryX=0.5;entryY=1;entryDx=0;entryDy=0;exitX=0;exitY=0.25;exitDx=0;exitDy=0;exitPerimeter=0;" parent="1" source="wT2hEgxZ2jl30o9yvn4_-85" target="wT2hEgxZ2jl30o9yvn4_-81" edge="1">
          <mxGeometry x="0.0007" width="160" relative="1" as="geometry">
            <mxPoint x="990" y="380" as="sourcePoint" />
            <mxPoint x="840" y="331" as="targetPoint" />
            <Array as="points" />
            <mxPoint as="offset" />
          </mxGeometry>
        </mxCell>
        <mxCell id="wT2hEgxZ2jl30o9yvn4_-85" value="Consultar habitación" style="ellipse;whiteSpace=wrap;html=1;" parent="1" vertex="1">
          <mxGeometry x="930" y="360" width="140" height="40" as="geometry" />
        </mxCell>
        <mxCell id="wT2hEgxZ2jl30o9yvn4_-88" value="Obtener informe" style="ellipse;whiteSpace=wrap;html=1;" parent="1" vertex="1">
          <mxGeometry x="750" y="560" width="140" height="40" as="geometry" />
        </mxCell>
        <mxCell id="EGmICfP2dhzSAQ1n8TOm-7" value="&lt;div&gt;&lt;b&gt;extension point&lt;/b&gt;&lt;/div&gt;&lt;div&gt;Obtener informe&lt;br&gt;&lt;/div&gt;" style="text;strokeColor=none;align=center;fillColor=none;html=1;verticalAlign=middle;whiteSpace=wrap;rounded=0;" parent="1" vertex="1">
          <mxGeometry x="545" y="494" width="130" height="30" as="geometry" />
        </mxCell>
        <mxCell id="EGmICfP2dhzSAQ1n8TOm-8" value="" style="edgeStyle=none;orthogonalLoop=1;jettySize=auto;html=1;rounded=0;endArrow=none;endFill=0;" parent="1" edge="1">
          <mxGeometry width="80" relative="1" as="geometry">
            <mxPoint x="552.5" y="490" as="sourcePoint" />
            <mxPoint x="667.5" y="490" as="targetPoint" />
            <Array as="points" />
          </mxGeometry>
        </mxCell>
        <mxCell id="EGmICfP2dhzSAQ1n8TOm-11" value="&amp;lt;&amp;lt;extends&amp;gt;&amp;gt;" style="endArrow=open;endSize=16;endFill=0;html=1;rounded=0;dashed=1;entryX=1;entryY=0.75;entryDx=0;entryDy=0;exitX=0;exitY=0.5;exitDx=0;exitDy=0;" parent="1" source="wT2hEgxZ2jl30o9yvn4_-88" target="EGmICfP2dhzSAQ1n8TOm-7" edge="1">
          <mxGeometry x="0.0001" width="160" relative="1" as="geometry">
            <mxPoint x="830" y="390" as="sourcePoint" />
            <mxPoint x="650" y="424" as="targetPoint" />
            <Array as="points" />
            <mxPoint as="offset" />
          </mxGeometry>
        </mxCell>
        <mxCell id="EGmICfP2dhzSAQ1n8TOm-12" value="&amp;lt;&amp;lt;includes&amp;gt;&amp;gt;" style="endArrow=open;endSize=16;endFill=0;html=1;rounded=0;exitX=1;exitY=0.5;exitDx=0;exitDy=0;dashed=1;" parent="1" source="wT2hEgxZ2jl30o9yvn4_-47" edge="1">
          <mxGeometry width="160" relative="1" as="geometry">
            <mxPoint x="690" y="510" as="sourcePoint" />
            <mxPoint x="1120" y="100" as="targetPoint" />
            <Array as="points">
              <mxPoint x="1120" y="670" />
            </Array>
          </mxGeometry>
        </mxCell>
        <mxCell id="05xFVWzXSuTNwva4G3cO-3" value="" style="endArrow=none;endFill=0;endSize=12;html=1;rounded=0;entryX=0;entryY=0;entryDx=0;entryDy=0;exitX=1;exitY=1;exitDx=0;exitDy=0;" edge="1" parent="1" source="wT2hEgxZ2jl30o9yvn4_-14" target="wT2hEgxZ2jl30o9yvn4_-27">
          <mxGeometry width="160" relative="1" as="geometry">
            <mxPoint x="450" y="195" as="sourcePoint" />
            <mxPoint x="500" y="235" as="targetPoint" />
            <Array as="points" />
          </mxGeometry>
        </mxCell>
      </root>
    </mxGraphModel>
  </diagram>
</mxfile>
